<mxfile host="Electron" agent="Mozilla/5.0 (Windows NT 10.0; Win64; x64) AppleWebKit/537.36 (KHTML, like Gecko) draw.io/24.7.8 Chrome/128.0.6613.36 Electron/32.0.1 Safari/537.36" version="24.7.8" pages="2">
  <diagram name="v1" id="Y4pV_W3IP2YC9C7JeagG">
    <mxGraphModel dx="1290" dy="621" grid="1" gridSize="10" guides="1" tooltips="1" connect="1" arrows="1" fold="1" page="1" pageScale="1" pageWidth="850" pageHeight="1100" math="0" shadow="0">
      <root>
        <mxCell id="0" />
        <mxCell id="1" parent="0" />
        <mxCell id="i8hgrG-fOeZfZu2RbVnV-45" value="" style="rounded=0;whiteSpace=wrap;html=1;" parent="1" vertex="1">
          <mxGeometry x="160" y="60" width="540" height="490" as="geometry" />
        </mxCell>
        <mxCell id="i8hgrG-fOeZfZu2RbVnV-4" value="" style="outlineConnect=0;dashed=0;verticalLabelPosition=bottom;verticalAlign=top;align=center;html=1;shape=mxgraph.aws3.ec2;fillColor=#F58534;gradientColor=none;" parent="1" vertex="1">
          <mxGeometry x="598" y="140" width="60" height="80" as="geometry" />
        </mxCell>
        <mxCell id="i8hgrG-fOeZfZu2RbVnV-8" value="2. Create EC2 Instance" style="text;html=1;align=center;verticalAlign=middle;whiteSpace=wrap;rounded=0;" parent="1" vertex="1">
          <mxGeometry x="478" y="85" width="82" height="30" as="geometry" />
        </mxCell>
        <mxCell id="i8hgrG-fOeZfZu2RbVnV-12" value="3. Add EC2 to Scales" style="text;html=1;align=center;verticalAlign=middle;whiteSpace=wrap;rounded=0;" parent="1" vertex="1">
          <mxGeometry x="340" y="200" width="68" height="30" as="geometry" />
        </mxCell>
        <mxCell id="i8hgrG-fOeZfZu2RbVnV-14" value="Scales" style="rounded=0;whiteSpace=wrap;html=1;" parent="1" vertex="1">
          <mxGeometry x="348" y="300" width="120" height="60" as="geometry" />
        </mxCell>
        <mxCell id="i8hgrG-fOeZfZu2RbVnV-15" value="" style="image;aspect=fixed;html=1;points=[];align=center;fontSize=12;image=img/lib/azure2/general/Scheduler.svg;" parent="1" vertex="1">
          <mxGeometry x="448" y="290" width="30" height="30" as="geometry" />
        </mxCell>
        <mxCell id="i8hgrG-fOeZfZu2RbVnV-18" value="4. Health Checks" style="text;html=1;align=center;verticalAlign=middle;whiteSpace=wrap;rounded=0;" parent="1" vertex="1">
          <mxGeometry x="489" y="300" width="60" height="30" as="geometry" />
        </mxCell>
        <mxCell id="i8hgrG-fOeZfZu2RbVnV-19" value="" style="sketch=0;points=[[0,0,0],[0.25,0,0],[0.5,0,0],[0.75,0,0],[1,0,0],[0,1,0],[0.25,1,0],[0.5,1,0],[0.75,1,0],[1,1,0],[0,0.25,0],[0,0.5,0],[0,0.75,0],[1,0.25,0],[1,0.5,0],[1,0.75,0]];outlineConnect=0;fontColor=#232F3E;fillColor=#C925D1;strokeColor=#ffffff;dashed=0;verticalLabelPosition=bottom;verticalAlign=top;align=center;html=1;fontSize=12;fontStyle=0;aspect=fixed;shape=mxgraph.aws4.resourceIcon;resIcon=mxgraph.aws4.dynamodb;" parent="1" vertex="1">
          <mxGeometry x="378" y="450" width="60" height="60" as="geometry" />
        </mxCell>
        <mxCell id="i8hgrG-fOeZfZu2RbVnV-21" value="" style="endArrow=classic;startArrow=classic;html=1;rounded=0;entryX=0.5;entryY=1;entryDx=0;entryDy=0;exitX=0.5;exitY=0;exitDx=0;exitDy=0;exitPerimeter=0;" parent="1" source="i8hgrG-fOeZfZu2RbVnV-19" target="i8hgrG-fOeZfZu2RbVnV-14" edge="1">
          <mxGeometry width="50" height="50" relative="1" as="geometry">
            <mxPoint x="418" y="420" as="sourcePoint" />
            <mxPoint x="468" y="370" as="targetPoint" />
          </mxGeometry>
        </mxCell>
        <mxCell id="i8hgrG-fOeZfZu2RbVnV-22" value="1. Update Config" style="text;html=1;align=center;verticalAlign=middle;whiteSpace=wrap;rounded=0;" parent="1" vertex="1">
          <mxGeometry x="350" y="390" width="58" height="30" as="geometry" />
        </mxCell>
        <mxCell id="i8hgrG-fOeZfZu2RbVnV-23" value="" style="outlineConnect=0;dashed=0;verticalLabelPosition=bottom;verticalAlign=top;align=center;html=1;shape=mxgraph.aws3.ec2;fillColor=#F58534;gradientColor=none;" parent="1" vertex="1">
          <mxGeometry x="598" y="290" width="70" height="80" as="geometry" />
        </mxCell>
        <mxCell id="i8hgrG-fOeZfZu2RbVnV-24" value="" style="outlineConnect=0;dashed=0;verticalLabelPosition=bottom;verticalAlign=top;align=center;html=1;shape=mxgraph.aws3.ec2;fillColor=#F58534;gradientColor=none;" parent="1" vertex="1">
          <mxGeometry x="593" y="430" width="70" height="80" as="geometry" />
        </mxCell>
        <mxCell id="i8hgrG-fOeZfZu2RbVnV-31" value="6. Routing&amp;nbsp;" style="text;html=1;align=center;verticalAlign=middle;whiteSpace=wrap;rounded=0;" parent="1" vertex="1">
          <mxGeometry x="488" y="330" width="62" height="30" as="geometry" />
        </mxCell>
        <mxCell id="i8hgrG-fOeZfZu2RbVnV-34" style="edgeStyle=orthogonalEdgeStyle;rounded=0;orthogonalLoop=1;jettySize=auto;html=1;exitX=0.5;exitY=1;exitDx=0;exitDy=0;entryX=0.5;entryY=0;entryDx=0;entryDy=0;" parent="1" source="i8hgrG-fOeZfZu2RbVnV-33" target="i8hgrG-fOeZfZu2RbVnV-14" edge="1">
          <mxGeometry relative="1" as="geometry" />
        </mxCell>
        <mxCell id="i8hgrG-fOeZfZu2RbVnV-37" style="edgeStyle=orthogonalEdgeStyle;rounded=0;orthogonalLoop=1;jettySize=auto;html=1;exitX=0;exitY=0.75;exitDx=0;exitDy=0;entryX=0;entryY=0.25;entryDx=0;entryDy=0;" parent="1" source="i8hgrG-fOeZfZu2RbVnV-33" target="i8hgrG-fOeZfZu2RbVnV-14" edge="1">
          <mxGeometry relative="1" as="geometry">
            <Array as="points">
              <mxPoint x="260" y="115" />
              <mxPoint x="260" y="315" />
            </Array>
          </mxGeometry>
        </mxCell>
        <mxCell id="i8hgrG-fOeZfZu2RbVnV-33" value="" style="shape=actor;whiteSpace=wrap;html=1;" parent="1" vertex="1">
          <mxGeometry x="388" y="70" width="40" height="60" as="geometry" />
        </mxCell>
        <mxCell id="i8hgrG-fOeZfZu2RbVnV-35" style="edgeStyle=orthogonalEdgeStyle;rounded=0;orthogonalLoop=1;jettySize=auto;html=1;exitX=1;exitY=0.75;exitDx=0;exitDy=0;entryX=0.5;entryY=0;entryDx=0;entryDy=0;entryPerimeter=0;" parent="1" source="i8hgrG-fOeZfZu2RbVnV-33" target="i8hgrG-fOeZfZu2RbVnV-4" edge="1">
          <mxGeometry relative="1" as="geometry" />
        </mxCell>
        <mxCell id="i8hgrG-fOeZfZu2RbVnV-38" value="1. Update Config Settings" style="text;html=1;align=center;verticalAlign=middle;whiteSpace=wrap;rounded=0;" parent="1" vertex="1">
          <mxGeometry x="168" y="200" width="90" height="30" as="geometry" />
        </mxCell>
        <mxCell id="i8hgrG-fOeZfZu2RbVnV-39" value="5. Update Instance Health" style="text;html=1;align=center;verticalAlign=middle;whiteSpace=wrap;rounded=0;" parent="1" vertex="1">
          <mxGeometry x="408" y="390" width="62" height="30" as="geometry" />
        </mxCell>
        <mxCell id="i8hgrG-fOeZfZu2RbVnV-40" value="Dev" style="text;html=1;align=center;verticalAlign=middle;whiteSpace=wrap;rounded=0;" parent="1" vertex="1">
          <mxGeometry x="378" y="100" width="60" height="30" as="geometry" />
        </mxCell>
        <mxCell id="i8hgrG-fOeZfZu2RbVnV-41" value="EC2 Instance App" style="text;html=1;align=center;verticalAlign=middle;whiteSpace=wrap;rounded=0;" parent="1" vertex="1">
          <mxGeometry x="578" y="220" width="100" height="30" as="geometry" />
        </mxCell>
        <mxCell id="i8hgrG-fOeZfZu2RbVnV-42" value="EC2 Instance App" style="text;html=1;align=center;verticalAlign=middle;whiteSpace=wrap;rounded=0;" parent="1" vertex="1">
          <mxGeometry x="583" y="370" width="100" height="30" as="geometry" />
        </mxCell>
        <mxCell id="i8hgrG-fOeZfZu2RbVnV-43" value="EC2 Instance App" style="text;html=1;align=center;verticalAlign=middle;whiteSpace=wrap;rounded=0;" parent="1" vertex="1">
          <mxGeometry x="583" y="510" width="100" height="30" as="geometry" />
        </mxCell>
        <mxCell id="XrT-bvMFnE4v5O1_TLYl-1" value="Config &amp;amp; Instance Data" style="text;html=1;align=center;verticalAlign=middle;whiteSpace=wrap;rounded=0;" parent="1" vertex="1">
          <mxGeometry x="367" y="510" width="82" height="30" as="geometry" />
        </mxCell>
        <mxCell id="XrT-bvMFnE4v5O1_TLYl-2" value="" style="shape=actor;whiteSpace=wrap;html=1;" parent="1" vertex="1">
          <mxGeometry x="210" y="440" width="40" height="60" as="geometry" />
        </mxCell>
        <mxCell id="XrT-bvMFnE4v5O1_TLYl-3" value="User" style="text;html=1;align=center;verticalAlign=middle;whiteSpace=wrap;rounded=0;" parent="1" vertex="1">
          <mxGeometry x="200" y="470" width="60" height="30" as="geometry" />
        </mxCell>
        <mxCell id="XrT-bvMFnE4v5O1_TLYl-6" value="6. Send Requests" style="text;html=1;align=center;verticalAlign=middle;whiteSpace=wrap;rounded=0;" parent="1" vertex="1">
          <mxGeometry x="168" y="370" width="58" height="30" as="geometry" />
        </mxCell>
        <mxCell id="XrT-bvMFnE4v5O1_TLYl-7" value="" style="endArrow=classic;startArrow=classic;html=1;rounded=0;exitX=0.5;exitY=0;exitDx=0;exitDy=0;entryX=0;entryY=0.75;entryDx=0;entryDy=0;" parent="1" source="XrT-bvMFnE4v5O1_TLYl-2" target="i8hgrG-fOeZfZu2RbVnV-14" edge="1">
          <mxGeometry width="50" height="50" relative="1" as="geometry">
            <mxPoint x="400" y="350" as="sourcePoint" />
            <mxPoint x="450" y="300" as="targetPoint" />
            <Array as="points">
              <mxPoint x="230" y="345" />
            </Array>
          </mxGeometry>
        </mxCell>
        <mxCell id="XrT-bvMFnE4v5O1_TLYl-9" value="" style="endArrow=classic;startArrow=classic;html=1;rounded=0;entryX=0;entryY=0.5;entryDx=0;entryDy=0;entryPerimeter=0;exitX=1;exitY=0.5;exitDx=0;exitDy=0;" parent="1" source="i8hgrG-fOeZfZu2RbVnV-14" target="i8hgrG-fOeZfZu2RbVnV-4" edge="1">
          <mxGeometry width="50" height="50" relative="1" as="geometry">
            <mxPoint x="400" y="350" as="sourcePoint" />
            <mxPoint x="450" y="300" as="targetPoint" />
            <Array as="points">
              <mxPoint x="560" y="330" />
              <mxPoint x="560" y="180" />
            </Array>
          </mxGeometry>
        </mxCell>
        <mxCell id="XrT-bvMFnE4v5O1_TLYl-10" value="" style="endArrow=classic;startArrow=classic;html=1;rounded=0;exitX=0;exitY=0.5;exitDx=0;exitDy=0;exitPerimeter=0;entryX=1;entryY=0.5;entryDx=0;entryDy=0;" parent="1" source="i8hgrG-fOeZfZu2RbVnV-24" target="i8hgrG-fOeZfZu2RbVnV-14" edge="1">
          <mxGeometry width="50" height="50" relative="1" as="geometry">
            <mxPoint x="400" y="350" as="sourcePoint" />
            <mxPoint x="450" y="300" as="targetPoint" />
            <Array as="points">
              <mxPoint x="560" y="470" />
              <mxPoint x="560" y="330" />
            </Array>
          </mxGeometry>
        </mxCell>
        <mxCell id="XrT-bvMFnE4v5O1_TLYl-11" value="" style="endArrow=classic;startArrow=classic;html=1;rounded=0;entryX=0;entryY=0.5;entryDx=0;entryDy=0;entryPerimeter=0;exitX=1;exitY=0.5;exitDx=0;exitDy=0;" parent="1" source="i8hgrG-fOeZfZu2RbVnV-14" target="i8hgrG-fOeZfZu2RbVnV-23" edge="1">
          <mxGeometry width="50" height="50" relative="1" as="geometry">
            <mxPoint x="400" y="350" as="sourcePoint" />
            <mxPoint x="450" y="300" as="targetPoint" />
          </mxGeometry>
        </mxCell>
      </root>
    </mxGraphModel>
  </diagram>
  <diagram id="9mukScVvPyOFWxvhn6fQ" name="v2">
    <mxGraphModel dx="1290" dy="621" grid="1" gridSize="10" guides="1" tooltips="1" connect="1" arrows="1" fold="1" page="1" pageScale="1" pageWidth="850" pageHeight="1100" math="0" shadow="0">
      <root>
        <mxCell id="0" />
        <mxCell id="1" parent="0" />
        <mxCell id="1fOfDLk3tQz96By8Qmto-1" value="" style="rounded=0;whiteSpace=wrap;html=1;" parent="1" vertex="1">
          <mxGeometry x="160" y="60" width="590" height="490" as="geometry" />
        </mxCell>
        <mxCell id="1fOfDLk3tQz96By8Qmto-39" value="" style="rounded=0;whiteSpace=wrap;html=1;" parent="1" vertex="1">
          <mxGeometry x="597.5" y="278.75" width="105" height="102.5" as="geometry" />
        </mxCell>
        <mxCell id="1fOfDLk3tQz96By8Qmto-2" value="" style="outlineConnect=0;dashed=0;verticalLabelPosition=bottom;verticalAlign=top;align=center;html=1;shape=mxgraph.aws3.ec2;fillColor=#F58534;gradientColor=none;" parent="1" vertex="1">
          <mxGeometry x="620" y="290" width="60" height="80" as="geometry" />
        </mxCell>
        <mxCell id="1fOfDLk3tQz96By8Qmto-5" value="Scales" style="rounded=0;whiteSpace=wrap;html=1;" parent="1" vertex="1">
          <mxGeometry x="348" y="300" width="120" height="60" as="geometry" />
        </mxCell>
        <mxCell id="1fOfDLk3tQz96By8Qmto-6" value="" style="image;aspect=fixed;html=1;points=[];align=center;fontSize=12;image=img/lib/azure2/general/Scheduler.svg;" parent="1" vertex="1">
          <mxGeometry x="590" y="270" width="30" height="30" as="geometry" />
        </mxCell>
        <mxCell id="1fOfDLk3tQz96By8Qmto-16" value="" style="shape=actor;whiteSpace=wrap;html=1;" parent="1" vertex="1">
          <mxGeometry x="630" y="90" width="40" height="60" as="geometry" />
        </mxCell>
        <mxCell id="1fOfDLk3tQz96By8Qmto-40" style="edgeStyle=orthogonalEdgeStyle;rounded=0;orthogonalLoop=1;jettySize=auto;html=1;exitX=0.5;exitY=1;exitDx=0;exitDy=0;entryX=0.5;entryY=0;entryDx=0;entryDy=0;" parent="1" source="1fOfDLk3tQz96By8Qmto-20" target="1fOfDLk3tQz96By8Qmto-39" edge="1">
          <mxGeometry relative="1" as="geometry" />
        </mxCell>
        <mxCell id="1fOfDLk3tQz96By8Qmto-20" value="Dev" style="text;html=1;align=center;verticalAlign=middle;whiteSpace=wrap;rounded=0;" parent="1" vertex="1">
          <mxGeometry x="620" y="120" width="60" height="30" as="geometry" />
        </mxCell>
        <mxCell id="1fOfDLk3tQz96By8Qmto-24" value="Config Properties File" style="text;html=1;align=center;verticalAlign=middle;whiteSpace=wrap;rounded=0;" parent="1" vertex="1">
          <mxGeometry x="367" y="491" width="82" height="30" as="geometry" />
        </mxCell>
        <mxCell id="1fOfDLk3tQz96By8Qmto-25" value="" style="shape=actor;whiteSpace=wrap;html=1;" parent="1" vertex="1">
          <mxGeometry x="210" y="440" width="40" height="60" as="geometry" />
        </mxCell>
        <mxCell id="1fOfDLk3tQz96By8Qmto-26" value="User" style="text;html=1;align=center;verticalAlign=middle;whiteSpace=wrap;rounded=0;" parent="1" vertex="1">
          <mxGeometry x="200" y="470" width="60" height="30" as="geometry" />
        </mxCell>
        <mxCell id="1fOfDLk3tQz96By8Qmto-28" value="" style="endArrow=classic;startArrow=classic;html=1;rounded=0;exitX=0.5;exitY=0;exitDx=0;exitDy=0;entryX=0;entryY=0.5;entryDx=0;entryDy=0;" parent="1" source="1fOfDLk3tQz96By8Qmto-25" target="1fOfDLk3tQz96By8Qmto-5" edge="1">
          <mxGeometry width="50" height="50" relative="1" as="geometry">
            <mxPoint x="400" y="350" as="sourcePoint" />
            <mxPoint x="450" y="300" as="targetPoint" />
            <Array as="points">
              <mxPoint x="230" y="330" />
            </Array>
          </mxGeometry>
        </mxCell>
        <mxCell id="1fOfDLk3tQz96By8Qmto-33" value="" style="edgeStyle=orthogonalEdgeStyle;rounded=0;orthogonalLoop=1;jettySize=auto;html=1;" parent="1" source="1fOfDLk3tQz96By8Qmto-32" target="1fOfDLk3tQz96By8Qmto-5" edge="1">
          <mxGeometry relative="1" as="geometry" />
        </mxCell>
        <mxCell id="1fOfDLk3tQz96By8Qmto-32" value="" style="whiteSpace=wrap;html=1;shape=mxgraph.basic.document" parent="1" vertex="1">
          <mxGeometry x="388" y="436" width="40" height="50" as="geometry" />
        </mxCell>
        <mxCell id="1fOfDLk3tQz96By8Qmto-42" style="edgeStyle=orthogonalEdgeStyle;rounded=0;orthogonalLoop=1;jettySize=auto;html=1;exitX=0;exitY=0.5;exitDx=0;exitDy=0;exitPerimeter=0;entryX=0.5;entryY=0;entryDx=0;entryDy=0;" parent="1" source="1fOfDLk3tQz96By8Qmto-34" target="1fOfDLk3tQz96By8Qmto-5" edge="1">
          <mxGeometry relative="1" as="geometry" />
        </mxCell>
        <mxCell id="1fOfDLk3tQz96By8Qmto-34" value="" style="sketch=0;points=[[0,0,0],[0.25,0,0],[0.5,0,0],[0.75,0,0],[1,0,0],[0,1,0],[0.25,1,0],[0.5,1,0],[0.75,1,0],[1,1,0],[0,0.25,0],[0,0.5,0],[0,0.75,0],[1,0.25,0],[1,0.5,0],[1,0.75,0]];outlineConnect=0;fontColor=#232F3E;fillColor=#E7157B;strokeColor=#ffffff;dashed=0;verticalLabelPosition=bottom;verticalAlign=top;align=center;html=1;fontSize=12;fontStyle=0;aspect=fixed;shape=mxgraph.aws4.resourceIcon;resIcon=mxgraph.aws4.sqs;" parent="1" vertex="1">
          <mxGeometry x="490" y="230.75" width="48" height="48" as="geometry" />
        </mxCell>
        <mxCell id="1fOfDLk3tQz96By8Qmto-41" style="edgeStyle=orthogonalEdgeStyle;rounded=0;orthogonalLoop=1;jettySize=auto;html=1;exitX=0.25;exitY=0;exitDx=0;exitDy=0;entryX=1;entryY=0.5;entryDx=0;entryDy=0;entryPerimeter=0;" parent="1" source="1fOfDLk3tQz96By8Qmto-39" target="1fOfDLk3tQz96By8Qmto-34" edge="1">
          <mxGeometry relative="1" as="geometry" />
        </mxCell>
        <mxCell id="1fOfDLk3tQz96By8Qmto-44" value="" style="endArrow=classic;startArrow=classic;html=1;rounded=0;entryX=0;entryY=0.5;entryDx=0;entryDy=0;exitX=1;exitY=0.5;exitDx=0;exitDy=0;" parent="1" source="1fOfDLk3tQz96By8Qmto-5" target="1fOfDLk3tQz96By8Qmto-39" edge="1">
          <mxGeometry width="50" height="50" relative="1" as="geometry">
            <mxPoint x="400" y="350" as="sourcePoint" />
            <mxPoint x="450" y="300" as="targetPoint" />
          </mxGeometry>
        </mxCell>
        <mxCell id="HSABol780d679ndr8HmU-1" value="1. Add/Remove EC2 Instances" style="text;html=1;align=center;verticalAlign=middle;whiteSpace=wrap;rounded=0;" parent="1" vertex="1">
          <mxGeometry x="650" y="180" width="90" height="30" as="geometry" />
        </mxCell>
        <mxCell id="HSABol780d679ndr8HmU-2" value="2. Send Heartbeats" style="text;html=1;align=center;verticalAlign=middle;whiteSpace=wrap;rounded=0;" parent="1" vertex="1">
          <mxGeometry x="550" y="220" width="80" height="30" as="geometry" />
        </mxCell>
        <mxCell id="HSABol780d679ndr8HmU-3" value="EC2 Instances of the same application" style="text;html=1;align=center;verticalAlign=middle;whiteSpace=wrap;rounded=0;" parent="1" vertex="1">
          <mxGeometry x="590" y="390" width="120" height="30" as="geometry" />
        </mxCell>
        <mxCell id="HSABol780d679ndr8HmU-4" value="Heartbeat Queue" style="text;html=1;align=center;verticalAlign=middle;whiteSpace=wrap;rounded=0;" parent="1" vertex="1">
          <mxGeometry x="484" y="200.75" width="60" height="30" as="geometry" />
        </mxCell>
        <mxCell id="HSABol780d679ndr8HmU-5" value="3. Read Heartbeats" style="text;html=1;align=center;verticalAlign=middle;whiteSpace=wrap;rounded=0;" parent="1" vertex="1">
          <mxGeometry x="420" y="220" width="60" height="30" as="geometry" />
        </mxCell>
        <mxCell id="HSABol780d679ndr8HmU-6" value="4. Request" style="text;html=1;align=center;verticalAlign=middle;whiteSpace=wrap;rounded=0;" parent="1" vertex="1">
          <mxGeometry x="250" y="300" width="70" height="30" as="geometry" />
        </mxCell>
        <mxCell id="HSABol780d679ndr8HmU-7" value="5. Round Robin b/w Active Instances" style="text;html=1;align=center;verticalAlign=middle;whiteSpace=wrap;rounded=0;" parent="1" vertex="1">
          <mxGeometry x="476" y="300" width="114" height="30" as="geometry" />
        </mxCell>
        <mxCell id="HSABol780d679ndr8HmU-8" value="Config/Settings" style="text;html=1;align=center;verticalAlign=middle;whiteSpace=wrap;rounded=0;" parent="1" vertex="1">
          <mxGeometry x="409" y="381.25" width="92" height="30" as="geometry" />
        </mxCell>
        <mxCell id="r8327JzVxM80EFUApLmV-1" value="" style="image;aspect=fixed;html=1;points=[];align=center;fontSize=12;image=img/lib/azure2/general/Scheduler.svg;" parent="1" vertex="1">
          <mxGeometry x="419" y="290" width="30" height="30" as="geometry" />
        </mxCell>
      </root>
    </mxGraphModel>
  </diagram>
</mxfile>
